<svg xmlns="http://www.w3.org/2000/svg" viewBox="0 0 64 64">
  <g>
    <rect width="64" height="64" rx="16" fill="#fff"/>
    <path d="M10 44c0-6 8-12 18-12s18 6 18 12c0 4-4 8-18 8S10 48 10 44z" fill="#FF6F00"/>
    <path d="M28 32c0-4 4-8 8-8s8 4 8 8" stroke="#fff" stroke-width="2" fill="none"/>
    <ellipse cx="28" cy="44" rx="4" ry="2" fill="#fff"/>
    <ellipse cx="36" cy="44" rx="4" ry="2" fill="#fff"/>
    <ellipse cx="44" cy="44" rx="4" ry="2" fill="#fff"/>
    <circle cx="24" cy="40" r="2" fill="#fff"/>
    <circle cx="40" cy="40" r="2" fill="#fff"/>
    <path d="M14 44c0-2 2-4 6-4s6 2 6 4" stroke="#fff" stroke-width="2" fill="none"/>
    <path d="M50 44c0-2-2-4-6-4s-6 2-6 4" stroke="#fff" stroke-width="2" fill="none"/>
  </g>
</svg>